<svg width="53" height="15" viewBox="0 0 53 15" fill="none" xmlns="http://www.w3.org/2000/svg">
<path d="M42.0055 9.37838C42.0055 8.36061 42.2067 7.45932 42.6092 6.67453C43.0235 5.88974 43.5798 5.28276 44.2781 4.85358C44.9883 4.41213 45.7695 4.19141 46.6217 4.19141C47.3911 4.19141 48.0599 4.35082 48.628 4.66964C49.208 4.9762 49.6696 5.36246 50.0129 5.82843V4.35695L52.0546 4.35695V14.4918L50.0129 14.4918V12.9835C49.6696 13.4618 49.2021 13.8603 48.6102 14.1791C48.0184 14.4979 47.3437 14.6573 46.5862 14.6573C45.7458 14.6573 44.9765 14.4366 44.2781 13.9952C43.5798 13.5415 43.0235 12.9161 42.6092 12.119C42.2067 11.3097 42.0055 10.3962 42.0055 9.37838ZM50.0129 9.41517C50.0129 8.71621 49.8708 8.10923 49.5867 7.59421C49.3145 7.07919 48.9535 6.68679 48.5037 6.41702C48.0539 6.14725 47.5686 6.01237 47.0478 6.01237C46.527 6.01237 46.0417 6.14725 45.592 6.41702C45.1422 6.67453 44.7752 7.0608 44.4912 7.57582C44.2189 8.07857 44.0828 8.67943 44.0828 9.37838C44.0828 10.0773 44.2189 10.6905 44.4912 11.2177C44.7752 11.745 45.1422 12.1497 45.592 12.4317C46.0536 12.7015 46.5389 12.8364 47.0478 12.8364C47.5686 12.8364 48.0539 12.7015 48.5037 12.4317C48.9535 12.162 49.3145 11.7695 49.5867 11.2545C49.8708 10.7272 50.0129 10.1141 50.0129 9.41517Z" fill="url(#paint0_linear_403_13127)"/>
<path d="M38.9705 5.82843C39.2664 5.31341 39.657 4.91489 40.1423 4.63286C40.6394 4.33856 41.2253 4.19141 41.9 4.19141V6.36184L41.3851 6.36184C40.5921 6.36184 39.9884 6.5703 39.5741 6.98722C39.1717 7.40414 38.9705 8.12762 38.9705 9.15766V14.4918H36.9465V4.35695L38.9705 4.35695V5.82843Z" fill="url(#paint1_linear_403_13127)"/>
<path d="M33.4224 6.06735V11.6774C33.4224 12.0575 33.5053 12.3334 33.671 12.5051C33.8485 12.6645 34.1444 12.7442 34.5587 12.7442H35.8015V14.4916H34.2036C33.2922 14.4916 32.5939 14.2709 32.1086 13.8294C31.6233 13.388 31.3806 12.6706 31.3806 11.6774L31.3806 6.06735L30.2266 6.06735V4.35675H31.3806V1.83684L33.4224 1.83684V4.35675H35.8015V6.06735H33.4224Z" fill="url(#paint2_linear_403_13127)"/>
<path d="M25.8956 4.19141C26.665 4.19141 27.3515 4.35695 27.9552 4.68804C28.5707 5.01912 29.05 5.50961 29.3933 6.15951C29.7484 6.80942 29.9259 7.59421 29.9259 8.51388L29.9259 14.4918L27.9197 14.4918L27.9197 8.82657C27.9197 7.91916 27.7007 7.22634 27.2627 6.74811C26.8248 6.25761 26.227 6.01237 25.4695 6.01237C24.712 6.01237 24.1083 6.25761 23.6585 6.74811C23.2206 7.22634 23.0016 7.91916 23.0016 8.82657L23.0016 14.4918H20.9954L20.9954 8.82657C20.9954 7.91916 20.7764 7.22634 20.3384 6.74811C19.9005 6.25761 19.3027 6.01237 18.5452 6.01237C17.7877 6.01237 17.184 6.25761 16.7342 6.74811C16.2963 7.22634 16.0773 7.91916 16.0773 8.82657V14.4918H14.0533L14.0533 4.35695L16.0773 4.35695V5.51575C16.4087 5.09883 16.8289 4.77387 17.3379 4.54089C17.8469 4.3079 18.3913 4.19141 18.9713 4.19141C19.7525 4.19141 20.4509 4.36309 21.0664 4.70643C21.6819 5.04978 22.1553 5.5464 22.4867 6.1963C22.7827 5.58318 23.2443 5.09883 23.8716 4.74322C24.4989 4.37535 25.1736 4.19141 25.8956 4.19141Z" fill="url(#paint3_linear_403_13127)"/>
<path d="M12.8366 4.35684L12.8366 14.4917H10.8126L10.8126 4.35684H12.8366Z" fill="url(#paint4_linear_403_13127)"/>
<path d="M4.62283 12.5875L9.64232 12.5875V14.4915L0.756348 14.4915L5.68617 6.30337L1.1165 6.30337L1.1165 4.41732L9.54397 4.41732L4.62283 12.5875Z" fill="url(#paint5_linear_403_13127)"/>
<path d="M8.20118 2.79333C8.44975 3.05084 8.75749 3.1796 9.12442 3.1796C9.47951 3.1796 9.78134 3.05084 10.0299 2.79333C10.2785 2.53582 10.4028 2.217 10.4028 1.83687C10.4028 1.45674 10.2785 1.13791 10.0299 0.880406C9.78134 0.622896 9.47951 0.494141 9.12442 0.494141C8.75749 0.494141 8.44975 0.622896 8.20118 0.880406C7.95262 1.13791 7.82833 1.45674 7.82833 1.83687C7.82833 2.217 7.95262 2.53582 8.20118 2.79333Z" fill="url(#paint6_linear_403_13127)"/>
<defs>
<linearGradient id="paint0_linear_403_13127" x1="67.5483" y1="4.69065" x2="20.0436" y2="-30.82" gradientUnits="userSpaceOnUse">
<stop offset="0.0722499" stop-color="#67DEAA"/>
<stop offset="0.437258" stop-color="#78F0C7"/>
<stop offset="0.763742" stop-color="#5ECAF8"/>
</linearGradient>
<linearGradient id="paint1_linear_403_13127" x1="67.5483" y1="4.69065" x2="20.0436" y2="-30.82" gradientUnits="userSpaceOnUse">
<stop offset="0.0722499" stop-color="#67DEAA"/>
<stop offset="0.437258" stop-color="#78F0C7"/>
<stop offset="0.763742" stop-color="#5ECAF8"/>
</linearGradient>
<linearGradient id="paint2_linear_403_13127" x1="67.5483" y1="4.69065" x2="20.0436" y2="-30.82" gradientUnits="userSpaceOnUse">
<stop offset="0.0722499" stop-color="#67DEAA"/>
<stop offset="0.437258" stop-color="#78F0C7"/>
<stop offset="0.763742" stop-color="#5ECAF8"/>
</linearGradient>
<linearGradient id="paint3_linear_403_13127" x1="67.5483" y1="4.69065" x2="20.0436" y2="-30.82" gradientUnits="userSpaceOnUse">
<stop offset="0.0722499" stop-color="#67DEAA"/>
<stop offset="0.437258" stop-color="#78F0C7"/>
<stop offset="0.763742" stop-color="#5ECAF8"/>
</linearGradient>
<linearGradient id="paint4_linear_403_13127" x1="67.5483" y1="4.69065" x2="20.0436" y2="-30.82" gradientUnits="userSpaceOnUse">
<stop offset="0.0722499" stop-color="#67DEAA"/>
<stop offset="0.437258" stop-color="#78F0C7"/>
<stop offset="0.763742" stop-color="#5ECAF8"/>
</linearGradient>
<linearGradient id="paint5_linear_403_13127" x1="67.5483" y1="4.69065" x2="20.0436" y2="-30.82" gradientUnits="userSpaceOnUse">
<stop offset="0.0722499" stop-color="#67DEAA"/>
<stop offset="0.437258" stop-color="#78F0C7"/>
<stop offset="0.763742" stop-color="#5ECAF8"/>
</linearGradient>
<linearGradient id="paint6_linear_403_13127" x1="67.5483" y1="4.69065" x2="20.0436" y2="-30.82" gradientUnits="userSpaceOnUse">
<stop offset="0.0722499" stop-color="#67DEAA"/>
<stop offset="0.437258" stop-color="#78F0C7"/>
<stop offset="0.763742" stop-color="#5ECAF8"/>
</linearGradient>
</defs>
</svg>
